<?xml version="1.0" encoding="UTF-8" standalone="no"?>
<!DOCTYPE svg PUBLIC "-//W3C//DTD SVG 1.1//EN"
 "http://www.w3.org/Graphics/SVG/1.1/DTD/svg11.dtd">
<!-- Generated by graphviz version 2.50.0 (0)
 -->
<!-- Title: Tree Pages: 1 -->
<svg width="1142pt" height="578pt"
 viewBox="0.00 0.00 1142.00 578.00" xmlns="http://www.w3.org/2000/svg" xmlns:xlink="http://www.w3.org/1999/xlink">
<g id="graph0" class="graph" transform="scale(1 1) rotate(0) translate(4 574)">
<title>Tree</title>
<polygon fill="white" stroke="transparent" points="-4,4 -4,-574 1138,-574 1138,4 -4,4"/>
<!-- 0 -->
<g id="node1" class="node">
<title>0</title>
<polygon fill="#eca571" stroke="black" points="689,-570 542,-570 542,-517 689,-517 689,-570"/>
<text text-anchor="middle" x="615.5" y="-554.8" font-family="Helvetica,sans-Serif" font-size="14.00">PWY&#45;7039 &lt;= 16.375</text>
<text text-anchor="middle" x="615.5" y="-539.8" font-family="Helvetica,sans-Serif" font-size="14.00">samples = 100.0%</text>
<text text-anchor="middle" x="615.5" y="-524.8" font-family="Helvetica,sans-Serif" font-size="14.00">value = [0.78, 0.22]</text>
</g>
<!-- 1 -->
<g id="node2" class="node">
<title>1</title>
<polygon fill="#eb9e66" stroke="black" points="610.5,-481 448.5,-481 448.5,-428 610.5,-428 610.5,-481"/>
<text text-anchor="middle" x="529.5" y="-465.8" font-family="Helvetica,sans-Serif" font-size="14.00">PWY&#45;6470 &lt;= 1234.578</text>
<text text-anchor="middle" x="529.5" y="-450.8" font-family="Helvetica,sans-Serif" font-size="14.00">samples = 80.8%</text>
<text text-anchor="middle" x="529.5" y="-435.8" font-family="Helvetica,sans-Serif" font-size="14.00">value = [0.815, 0.185]</text>
</g>
<!-- 0&#45;&gt;1 -->
<g id="edge1" class="edge">
<title>0&#45;&gt;1</title>
<path fill="none" stroke="black" d="M590.16,-516.87C581.4,-508.01 571.46,-497.95 562.2,-488.58"/>
<polygon fill="black" stroke="black" points="564.47,-485.9 554.95,-481.25 559.49,-490.82 564.47,-485.9"/>
<text text-anchor="middle" x="554.81" y="-502.55" font-family="Helvetica,sans-Serif" font-size="14.00">True</text>
</g>
<!-- 58 -->
<g id="node13" class="node">
<title>58</title>
<polygon fill="#f4c8a8" stroke="black" points="776,-481 629,-481 629,-428 776,-428 776,-481"/>
<text text-anchor="middle" x="702.5" y="-465.8" font-family="Helvetica,sans-Serif" font-size="14.00">PWY&#45;7039 &lt;= 21.069</text>
<text text-anchor="middle" x="702.5" y="-450.8" font-family="Helvetica,sans-Serif" font-size="14.00">samples = 19.2%</text>
<text text-anchor="middle" x="702.5" y="-435.8" font-family="Helvetica,sans-Serif" font-size="14.00">value = [0.64, 0.36]</text>
</g>
<!-- 0&#45;&gt;58 -->
<g id="edge12" class="edge">
<title>0&#45;&gt;58</title>
<path fill="none" stroke="black" d="M641.13,-516.87C649.99,-508.01 660.05,-497.95 669.42,-488.58"/>
<polygon fill="black" stroke="black" points="672.15,-490.8 676.75,-481.25 667.2,-485.85 672.15,-490.8"/>
<text text-anchor="middle" x="676.75" y="-502.55" font-family="Helvetica,sans-Serif" font-size="14.00">False</text>
</g>
<!-- 2 -->
<g id="node3" class="node">
<title>2</title>
<polygon fill="#ea9b62" stroke="black" points="463.5,-392 221.5,-392 221.5,-339 463.5,-339 463.5,-392"/>
<text text-anchor="middle" x="342.5" y="-376.8" font-family="Helvetica,sans-Serif" font-size="14.00">DENITRIFICATION&#45;PWY &lt;= 228.837</text>
<text text-anchor="middle" x="342.5" y="-361.8" font-family="Helvetica,sans-Serif" font-size="14.00">samples = 80.1%</text>
<text text-anchor="middle" x="342.5" y="-346.8" font-family="Helvetica,sans-Serif" font-size="14.00">value = [0.827, 0.173]</text>
</g>
<!-- 1&#45;&gt;2 -->
<g id="edge2" class="edge">
<title>1&#45;&gt;2</title>
<path fill="none" stroke="black" d="M474.66,-427.98C453.35,-418.07 428.78,-406.64 406.66,-396.35"/>
<polygon fill="black" stroke="black" points="407.88,-393.06 397.34,-392.01 404.93,-399.41 407.88,-393.06"/>
</g>
<!-- 57 -->
<g id="node12" class="node">
<title>57</title>
<polygon fill="#399de5" stroke="black" points="599,-384.5 482,-384.5 482,-346.5 599,-346.5 599,-384.5"/>
<text text-anchor="middle" x="540.5" y="-369.3" font-family="Helvetica,sans-Serif" font-size="14.00">samples = 0.6%</text>
<text text-anchor="middle" x="540.5" y="-354.3" font-family="Helvetica,sans-Serif" font-size="14.00">value = [0.0, 1.0]</text>
</g>
<!-- 1&#45;&gt;57 -->
<g id="edge11" class="edge">
<title>1&#45;&gt;57</title>
<path fill="none" stroke="black" d="M532.74,-427.87C534.06,-417.42 535.59,-405.3 536.95,-394.61"/>
<polygon fill="black" stroke="black" points="540.44,-394.87 538.22,-384.51 533.5,-393.99 540.44,-394.87"/>
</g>
<!-- 3 -->
<g id="node4" class="node">
<title>3</title>
<polygon fill="#ea995f" stroke="black" points="425.5,-303 195.5,-303 195.5,-250 425.5,-250 425.5,-303"/>
<text text-anchor="middle" x="310.5" y="-287.8" font-family="Helvetica,sans-Serif" font-size="14.00">METH&#45;ACETATE&#45;PWY &lt;= 355.432</text>
<text text-anchor="middle" x="310.5" y="-272.8" font-family="Helvetica,sans-Serif" font-size="14.00">samples = 78.8%</text>
<text text-anchor="middle" x="310.5" y="-257.8" font-family="Helvetica,sans-Serif" font-size="14.00">value = [0.84, 0.16]</text>
</g>
<!-- 2&#45;&gt;3 -->
<g id="edge3" class="edge">
<title>2&#45;&gt;3</title>
<path fill="none" stroke="black" d="M333.07,-338.87C330.07,-330.71 326.7,-321.54 323.49,-312.82"/>
<polygon fill="black" stroke="black" points="326.71,-311.43 319.97,-303.25 320.14,-313.84 326.71,-311.43"/>
</g>
<!-- 56 -->
<g id="node11" class="node">
<title>56</title>
<polygon fill="#399de5" stroke="black" points="561,-295.5 444,-295.5 444,-257.5 561,-257.5 561,-295.5"/>
<text text-anchor="middle" x="502.5" y="-280.3" font-family="Helvetica,sans-Serif" font-size="14.00">samples = 1.3%</text>
<text text-anchor="middle" x="502.5" y="-265.3" font-family="Helvetica,sans-Serif" font-size="14.00">value = [0.0, 1.0]</text>
</g>
<!-- 2&#45;&gt;56 -->
<g id="edge10" class="edge">
<title>2&#45;&gt;56</title>
<path fill="none" stroke="black" d="M389.64,-338.87C412.06,-326.68 438.65,-312.22 460.39,-300.4"/>
<polygon fill="black" stroke="black" points="462.27,-303.36 469.38,-295.51 458.93,-297.21 462.27,-303.36"/>
</g>
<!-- 4 -->
<g id="node5" class="node">
<title>4</title>
<polygon fill="#ea975c" stroke="black" points="324,-214 169,-214 169,-161 324,-161 324,-214"/>
<text text-anchor="middle" x="246.5" y="-198.8" font-family="Helvetica,sans-Serif" font-size="14.00">PWY&#45;6562 &lt;= 633.404</text>
<text text-anchor="middle" x="246.5" y="-183.8" font-family="Helvetica,sans-Serif" font-size="14.00">samples = 77.6%</text>
<text text-anchor="middle" x="246.5" y="-168.8" font-family="Helvetica,sans-Serif" font-size="14.00">value = [0.849, 0.151]</text>
</g>
<!-- 3&#45;&gt;4 -->
<g id="edge4" class="edge">
<title>3&#45;&gt;4</title>
<path fill="none" stroke="black" d="M291.64,-249.87C285.32,-241.27 278.17,-231.55 271.45,-222.42"/>
<polygon fill="black" stroke="black" points="274.19,-220.23 265.44,-214.25 268.55,-224.38 274.19,-220.23"/>
</g>
<!-- 55 -->
<g id="node10" class="node">
<title>55</title>
<polygon fill="#399de5" stroke="black" points="459,-206.5 342,-206.5 342,-168.5 459,-168.5 459,-206.5"/>
<text text-anchor="middle" x="400.5" y="-191.3" font-family="Helvetica,sans-Serif" font-size="14.00">samples = 1.3%</text>
<text text-anchor="middle" x="400.5" y="-176.3" font-family="Helvetica,sans-Serif" font-size="14.00">value = [0.0, 1.0]</text>
</g>
<!-- 3&#45;&gt;55 -->
<g id="edge9" class="edge">
<title>3&#45;&gt;55</title>
<path fill="none" stroke="black" d="M337.02,-249.87C348.84,-238.44 362.73,-225.01 374.49,-213.64"/>
<polygon fill="black" stroke="black" points="377.12,-215.97 381.87,-206.51 372.25,-210.94 377.12,-215.97"/>
</g>
<!-- 5 -->
<g id="node6" class="node">
<title>5</title>
<polygon fill="#e99559" stroke="black" points="221,-125 0,-125 0,-72 221,-72 221,-125"/>
<text text-anchor="middle" x="110.5" y="-109.8" font-family="Helvetica,sans-Serif" font-size="14.00">Occipital_low_alpha_t1 &lt;= 13.415</text>
<text text-anchor="middle" x="110.5" y="-94.8" font-family="Helvetica,sans-Serif" font-size="14.00">samples = 76.9%</text>
<text text-anchor="middle" x="110.5" y="-79.8" font-family="Helvetica,sans-Serif" font-size="14.00">value = [0.862, 0.138]</text>
</g>
<!-- 4&#45;&gt;5 -->
<g id="edge5" class="edge">
<title>4&#45;&gt;5</title>
<path fill="none" stroke="black" d="M206.43,-160.87C191.62,-151.39 174.67,-140.55 159.18,-130.64"/>
<polygon fill="black" stroke="black" points="161.06,-127.69 150.75,-125.25 157.29,-133.59 161.06,-127.69"/>
</g>
<!-- 54 -->
<g id="node9" class="node">
<title>54</title>
<polygon fill="#399de5" stroke="black" points="356,-117.5 239,-117.5 239,-79.5 356,-79.5 356,-117.5"/>
<text text-anchor="middle" x="297.5" y="-102.3" font-family="Helvetica,sans-Serif" font-size="14.00">samples = 0.6%</text>
<text text-anchor="middle" x="297.5" y="-87.3" font-family="Helvetica,sans-Serif" font-size="14.00">value = [0.0, 1.0]</text>
</g>
<!-- 4&#45;&gt;54 -->
<g id="edge8" class="edge">
<title>4&#45;&gt;54</title>
<path fill="none" stroke="black" d="M261.53,-160.87C267.91,-149.98 275.35,-137.29 281.8,-126.28"/>
<polygon fill="black" stroke="black" points="284.91,-127.9 286.94,-117.51 278.87,-124.36 284.91,-127.9"/>
</g>
<!-- 6 -->
<g id="node7" class="node">
<title>6</title>
<polygon fill="#c0c0c0" stroke="black" points="101.5,-36 47.5,-36 47.5,0 101.5,0 101.5,-36"/>
<text text-anchor="middle" x="74.5" y="-14.3" font-family="Helvetica,sans-Serif" font-size="14.00">(...)</text>
</g>
<!-- 5&#45;&gt;6 -->
<g id="edge6" class="edge">
<title>5&#45;&gt;6</title>
<path fill="none" stroke="black" d="M98.71,-71.8C94.84,-63.35 90.53,-53.95 86.63,-45.45"/>
<polygon fill="black" stroke="black" points="89.8,-43.96 82.45,-36.33 83.43,-46.88 89.8,-43.96"/>
</g>
<!-- 43 -->
<g id="node8" class="node">
<title>43</title>
<polygon fill="#c0c0c0" stroke="black" points="173.5,-36 119.5,-36 119.5,0 173.5,0 173.5,-36"/>
<text text-anchor="middle" x="146.5" y="-14.3" font-family="Helvetica,sans-Serif" font-size="14.00">(...)</text>
</g>
<!-- 5&#45;&gt;43 -->
<g id="edge7" class="edge">
<title>5&#45;&gt;43</title>
<path fill="none" stroke="black" d="M122.29,-71.8C126.16,-63.35 130.47,-53.95 134.37,-45.45"/>
<polygon fill="black" stroke="black" points="137.57,-46.88 138.55,-36.33 131.2,-43.96 137.57,-46.88"/>
</g>
<!-- 59 -->
<g id="node14" class="node">
<title>59</title>
<polygon fill="#399de5" stroke="black" points="750,-384.5 633,-384.5 633,-346.5 750,-346.5 750,-384.5"/>
<text text-anchor="middle" x="691.5" y="-369.3" font-family="Helvetica,sans-Serif" font-size="14.00">samples = 1.9%</text>
<text text-anchor="middle" x="691.5" y="-354.3" font-family="Helvetica,sans-Serif" font-size="14.00">value = [0.0, 1.0]</text>
</g>
<!-- 58&#45;&gt;59 -->
<g id="edge13" class="edge">
<title>58&#45;&gt;59</title>
<path fill="none" stroke="black" d="M699.26,-427.87C697.94,-417.42 696.41,-405.3 695.05,-394.61"/>
<polygon fill="black" stroke="black" points="698.5,-393.99 693.78,-384.51 691.56,-394.87 698.5,-393.99"/>
</g>
<!-- 60 -->
<g id="node15" class="node">
<title>60</title>
<polygon fill="#efb083" stroke="black" points="1080.5,-392 768.5,-392 768.5,-339 1080.5,-339 1080.5,-392"/>
<text text-anchor="middle" x="924.5" y="-376.8" font-family="Helvetica,sans-Serif" font-size="14.00">Activation_Inactivation_Interconversion_t1 &lt;= 0.0</text>
<text text-anchor="middle" x="924.5" y="-361.8" font-family="Helvetica,sans-Serif" font-size="14.00">samples = 17.3%</text>
<text text-anchor="middle" x="924.5" y="-346.8" font-family="Helvetica,sans-Serif" font-size="14.00">value = [0.727, 0.273]</text>
</g>
<!-- 58&#45;&gt;60 -->
<g id="edge14" class="edge">
<title>58&#45;&gt;60</title>
<path fill="none" stroke="black" d="M767.61,-427.98C793.36,-417.89 823.11,-406.23 849.74,-395.8"/>
<polygon fill="black" stroke="black" points="851.36,-398.92 859.39,-392.01 848.81,-392.4 851.36,-398.92"/>
</g>
<!-- 61 -->
<g id="node16" class="node">
<title>61</title>
<polygon fill="#eca06a" stroke="black" points="898.5,-303 728.5,-303 728.5,-250 898.5,-250 898.5,-303"/>
<text text-anchor="middle" x="813.5" y="-287.8" font-family="Helvetica,sans-Serif" font-size="14.00">bisq_4_mins_t1 &lt;= 390.0</text>
<text text-anchor="middle" x="813.5" y="-272.8" font-family="Helvetica,sans-Serif" font-size="14.00">samples = 16.7%</text>
<text text-anchor="middle" x="813.5" y="-257.8" font-family="Helvetica,sans-Serif" font-size="14.00">value = [0.8, 0.2]</text>
</g>
<!-- 60&#45;&gt;61 -->
<g id="edge15" class="edge">
<title>60&#45;&gt;61</title>
<path fill="none" stroke="black" d="M891.8,-338.87C880.05,-329.66 866.64,-319.15 854.29,-309.47"/>
<polygon fill="black" stroke="black" points="856.38,-306.66 846.35,-303.25 852.06,-312.17 856.38,-306.66"/>
</g>
<!-- 72 -->
<g id="node27" class="node">
<title>72</title>
<polygon fill="#399de5" stroke="black" points="1034,-295.5 917,-295.5 917,-257.5 1034,-257.5 1034,-295.5"/>
<text text-anchor="middle" x="975.5" y="-280.3" font-family="Helvetica,sans-Serif" font-size="14.00">samples = 0.6%</text>
<text text-anchor="middle" x="975.5" y="-265.3" font-family="Helvetica,sans-Serif" font-size="14.00">value = [0.0, 1.0]</text>
</g>
<!-- 60&#45;&gt;72 -->
<g id="edge26" class="edge">
<title>60&#45;&gt;72</title>
<path fill="none" stroke="black" d="M939.53,-338.87C945.91,-327.98 953.35,-315.29 959.8,-304.28"/>
<polygon fill="black" stroke="black" points="962.91,-305.9 964.94,-295.51 956.87,-302.36 962.91,-305.9"/>
</g>
<!-- 62 -->
<g id="node17" class="node">
<title>62</title>
<polygon fill="#e88e4d" stroke="black" points="710,-214 563,-214 563,-161 710,-161 710,-214"/>
<text text-anchor="middle" x="636.5" y="-198.8" font-family="Helvetica,sans-Serif" font-size="14.00">PWY0&#45;461 &lt;= 1.567</text>
<text text-anchor="middle" x="636.5" y="-183.8" font-family="Helvetica,sans-Serif" font-size="14.00">samples = 13.5%</text>
<text text-anchor="middle" x="636.5" y="-168.8" font-family="Helvetica,sans-Serif" font-size="14.00">value = [0.906, 0.094]</text>
</g>
<!-- 61&#45;&gt;62 -->
<g id="edge16" class="edge">
<title>61&#45;&gt;62</title>
<path fill="none" stroke="black" d="M761.35,-249.87C741.37,-240.04 718.38,-228.75 697.63,-218.55"/>
<polygon fill="black" stroke="black" points="699.1,-215.37 688.58,-214.1 696.01,-221.65 699.1,-215.37"/>
</g>
<!-- 67 -->
<g id="node22" class="node">
<title>67</title>
<polygon fill="#b0d8f5" stroke="black" points="939,-214 792,-214 792,-161 939,-161 939,-214"/>
<text text-anchor="middle" x="865.5" y="-198.8" font-family="Helvetica,sans-Serif" font-size="14.00">PWY&#45;8086 &lt;= 16.495</text>
<text text-anchor="middle" x="865.5" y="-183.8" font-family="Helvetica,sans-Serif" font-size="14.00">samples = 3.2%</text>
<text text-anchor="middle" x="865.5" y="-168.8" font-family="Helvetica,sans-Serif" font-size="14.00">value = [0.375, 0.625]</text>
</g>
<!-- 61&#45;&gt;67 -->
<g id="edge21" class="edge">
<title>61&#45;&gt;67</title>
<path fill="none" stroke="black" d="M828.82,-249.87C833.85,-241.45 839.53,-231.95 844.89,-222.98"/>
<polygon fill="black" stroke="black" points="847.98,-224.63 850.11,-214.25 841.97,-221.04 847.98,-224.63"/>
</g>
<!-- 63 -->
<g id="node18" class="node">
<title>63</title>
<polygon fill="#399de5" stroke="black" points="541,-117.5 424,-117.5 424,-79.5 541,-79.5 541,-117.5"/>
<text text-anchor="middle" x="482.5" y="-102.3" font-family="Helvetica,sans-Serif" font-size="14.00">samples = 0.6%</text>
<text text-anchor="middle" x="482.5" y="-87.3" font-family="Helvetica,sans-Serif" font-size="14.00">value = [0.0, 1.0]</text>
</g>
<!-- 62&#45;&gt;63 -->
<g id="edge17" class="edge">
<title>62&#45;&gt;63</title>
<path fill="none" stroke="black" d="M591.13,-160.87C569.64,-148.73 544.18,-134.35 523.31,-122.55"/>
<polygon fill="black" stroke="black" points="524.8,-119.38 514.37,-117.51 521.36,-125.47 524.8,-119.38"/>
</g>
<!-- 64 -->
<g id="node19" class="node">
<title>64</title>
<polygon fill="#e68540" stroke="black" points="714,-125 559,-125 559,-72 714,-72 714,-125"/>
<text text-anchor="middle" x="636.5" y="-109.8" font-family="Helvetica,sans-Serif" font-size="14.00">PWY&#45;5505 &lt;= 190.035</text>
<text text-anchor="middle" x="636.5" y="-94.8" font-family="Helvetica,sans-Serif" font-size="14.00">samples = 12.8%</text>
<text text-anchor="middle" x="636.5" y="-79.8" font-family="Helvetica,sans-Serif" font-size="14.00">value = [0.967, 0.033]</text>
</g>
<!-- 62&#45;&gt;64 -->
<g id="edge18" class="edge">
<title>62&#45;&gt;64</title>
<path fill="none" stroke="black" d="M636.5,-160.87C636.5,-152.89 636.5,-143.93 636.5,-135.38"/>
<polygon fill="black" stroke="black" points="640,-135.25 636.5,-125.25 633,-135.25 640,-135.25"/>
</g>
<!-- 65 -->
<g id="node20" class="node">
<title>65</title>
<polygon fill="#c0c0c0" stroke="black" points="627.5,-36 573.5,-36 573.5,0 627.5,0 627.5,-36"/>
<text text-anchor="middle" x="600.5" y="-14.3" font-family="Helvetica,sans-Serif" font-size="14.00">(...)</text>
</g>
<!-- 64&#45;&gt;65 -->
<g id="edge19" class="edge">
<title>64&#45;&gt;65</title>
<path fill="none" stroke="black" d="M624.71,-71.8C620.84,-63.35 616.53,-53.95 612.63,-45.45"/>
<polygon fill="black" stroke="black" points="615.8,-43.96 608.45,-36.33 609.43,-46.88 615.8,-43.96"/>
</g>
<!-- 66 -->
<g id="node21" class="node">
<title>66</title>
<polygon fill="#c0c0c0" stroke="black" points="699.5,-36 645.5,-36 645.5,0 699.5,0 699.5,-36"/>
<text text-anchor="middle" x="672.5" y="-14.3" font-family="Helvetica,sans-Serif" font-size="14.00">(...)</text>
</g>
<!-- 64&#45;&gt;66 -->
<g id="edge20" class="edge">
<title>64&#45;&gt;66</title>
<path fill="none" stroke="black" d="M648.29,-71.8C652.16,-63.35 656.47,-53.95 660.37,-45.45"/>
<polygon fill="black" stroke="black" points="663.57,-46.88 664.55,-36.33 657.2,-43.96 663.57,-46.88"/>
</g>
<!-- 68 -->
<g id="node23" class="node">
<title>68</title>
<polygon fill="#f6d5bd" stroke="black" points="998.5,-125 732.5,-125 732.5,-72 998.5,-72 998.5,-125"/>
<text text-anchor="middle" x="865.5" y="-109.8" font-family="Helvetica,sans-Serif" font-size="14.00">r_30hz_post_pre_waveleting_t1 &lt;= 0.482</text>
<text text-anchor="middle" x="865.5" y="-94.8" font-family="Helvetica,sans-Serif" font-size="14.00">samples = 2.6%</text>
<text text-anchor="middle" x="865.5" y="-79.8" font-family="Helvetica,sans-Serif" font-size="14.00">value = [0.6, 0.4]</text>
</g>
<!-- 67&#45;&gt;68 -->
<g id="edge22" class="edge">
<title>67&#45;&gt;68</title>
<path fill="none" stroke="black" d="M865.5,-160.87C865.5,-152.89 865.5,-143.93 865.5,-135.38"/>
<polygon fill="black" stroke="black" points="869,-135.25 865.5,-125.25 862,-135.25 869,-135.25"/>
</g>
<!-- 71 -->
<g id="node26" class="node">
<title>71</title>
<polygon fill="#399de5" stroke="black" points="1134,-117.5 1017,-117.5 1017,-79.5 1134,-79.5 1134,-117.5"/>
<text text-anchor="middle" x="1075.5" y="-102.3" font-family="Helvetica,sans-Serif" font-size="14.00">samples = 0.6%</text>
<text text-anchor="middle" x="1075.5" y="-87.3" font-family="Helvetica,sans-Serif" font-size="14.00">value = [0.0, 1.0]</text>
</g>
<!-- 67&#45;&gt;71 -->
<g id="edge25" class="edge">
<title>67&#45;&gt;71</title>
<path fill="none" stroke="black" d="M927.09,-160.98C957.32,-148.46 993.37,-133.53 1022.37,-121.51"/>
<polygon fill="black" stroke="black" points="1024.02,-124.62 1031.92,-117.55 1021.34,-118.15 1024.02,-124.62"/>
</g>
<!-- 69 -->
<g id="node24" class="node">
<title>69</title>
<polygon fill="#c0c0c0" stroke="black" points="856.5,-36 802.5,-36 802.5,0 856.5,0 856.5,-36"/>
<text text-anchor="middle" x="829.5" y="-14.3" font-family="Helvetica,sans-Serif" font-size="14.00">(...)</text>
</g>
<!-- 68&#45;&gt;69 -->
<g id="edge23" class="edge">
<title>68&#45;&gt;69</title>
<path fill="none" stroke="black" d="M853.71,-71.8C849.84,-63.35 845.53,-53.95 841.63,-45.45"/>
<polygon fill="black" stroke="black" points="844.8,-43.96 837.45,-36.33 838.43,-46.88 844.8,-43.96"/>
</g>
<!-- 70 -->
<g id="node25" class="node">
<title>70</title>
<polygon fill="#c0c0c0" stroke="black" points="928.5,-36 874.5,-36 874.5,0 928.5,0 928.5,-36"/>
<text text-anchor="middle" x="901.5" y="-14.3" font-family="Helvetica,sans-Serif" font-size="14.00">(...)</text>
</g>
<!-- 68&#45;&gt;70 -->
<g id="edge24" class="edge">
<title>68&#45;&gt;70</title>
<path fill="none" stroke="black" d="M877.29,-71.8C881.16,-63.35 885.47,-53.95 889.37,-45.45"/>
<polygon fill="black" stroke="black" points="892.57,-46.88 893.55,-36.33 886.2,-43.96 892.57,-46.88"/>
</g>
</g>
</svg>
